<?xml version="1.0" encoding="UTF-8"?>
<svg viewBox="0 0 293.33 393.31" xmlns="http://www.w3.org/2000/svg">
 <g stroke-linejoin="round">
  <g fill-rule="evenodd" stroke-width="4">
   <path d="m143 77.503c1.5-30.5 39-75 45.5-75.5s-14 70.5-19.5 75.5-25.5 1.5-26 0z" fill="#4f2204" stroke="#000"/>
   <path d="m188.5 2c-0.51578 0.03967-1.2523 0.37271-2.125 0.9375-0.95374 13.17-22.907 66.265-28.156 70.125-2.9616 2.1777-9.2483 1.9409-14.875 0.9375-0.15404 1.1804-0.28749 2.356-0.34375 3.5 0.5 1.5 20.5 5 26 0s26-76 19.5-75.5z" fill-opacity=".314"/>
  </g>
  <g stroke-linecap="round">
   <path d="m269.77 189.79a123.39 123.39 0 1 1 -246.77 0 123.39 123.39 0 1 1 246.77 0z" fill="#af8626" stroke="#000" stroke-width="2.204"/>
   <path d="m246.77 170.3a95.386 95.386 0 1 1 -190.77 0 95.386 95.386 0 1 1 190.77 0z" fill-opacity=".314" stroke-width="2.851"/>
   <g stroke-width="4">
    <path d="m254.95 131.17c3.2019 10.975 4.9063 22.589 4.9063 34.594 0 68.109-55.266 123.38-123.38 123.38-46.825 0-87.598-26.132-108.5-64.594 15.023 51.2 62.367 88.625 118.41 88.625 68.109 0 123.38-55.266 123.38-123.38 0-21.21-5.3732-41.186-14.812-58.625z" fill="#cea439"/>
    <g stroke="#000">
     <path d="m230.42 309.73c0 21.545-17.486 20.774-39.03 20.774-21.545 0-39.03 0.77051-39.03-20.774s17.486-39.03 39.03-39.03c21.545 0 39.03 17.486 39.03 39.03z" fill="#422111"/>
     <path d="m140.4 309.73c0 21.545-17.486 20.774-39.03 20.774-11.98 0-22.705 0.23822-29.866-3.2543-5.7178-2.7884-9.1641-7.9551-9.1641-17.52 0-21.545 17.486-39.03 39.03-39.03 21.545 0 39.03 17.486 39.03 39.03z" fill="#492616"/>
    </g>
   </g>
  </g>
 </g>
 <g stroke-linecap="round">
  <g transform="matrix(-1 0 0 1 652.15 -2.8284)" fill="none" stroke="#000" stroke-width="4">
   <path d="m536.42 330.18c-3.5026-11.331 0.50043-24.551 0.50043-24.551"/>
   <path d="m554.45 332.7c4.293-18.256-0.61334-32.735-0.61334-32.735"/>
   <path d="m572.7 330.81c8.8132-13.85 1.259-25.181 1.259-25.181"/>
  </g>
  <g stroke-linejoin="round">
   <path d="m241.77 156.8a95.386 95.386 0 1 1 -190.77 0 95.386 95.386 0 1 1 190.77 0z" fill="#c4993c" stroke="#000" stroke-width="2.851"/>
   <path d="m233.44 117.75c1.5257 6.7692 2.3438 13.803 2.3438 21.031 0 52.653-42.753 95.406-95.406 95.406-38.776 0-72.153-23.191-87.062-56.438 9.5551 42.587 47.605 74.438 93.062 74.438 52.653 0 95.406-42.753 95.406-95.406 0-13.912-2.9826-27.11-8.3438-39.031z" fill-opacity=".314" stroke-width="4"/>
   <g fill="#fff" stroke="#000" stroke-width="9.931">
    <path d="m142.26 138.79a27.384 27.384 0 1 1 -54.768 0 27.384 27.384 0 1 1 54.768 0z"/>
    <path d="m205.84 138.79a27.384 27.384 0 1 1 -54.768 0 27.384 27.384 0 1 1 54.768 0z"/>
   </g>
   <g stroke-width="32">
    <path d="m131.56 141.93a8.4985 8.4985 0 1 1 -16.997 0 8.4985 8.4985 0 1 1 16.997 0z"/>
    <path d="m178.14 141.93a8.4985 8.4985 0 1 1 -16.997 0 8.4985 8.4985 0 1 1 16.997 0z"/>
   </g>
   <g stroke-width="4">
    <path d="m171.73 203.23c0 13.776-15.086 24.956-25.067 24.956-10.752 0-25.067-11.18-25.067-24.956s11.23-17.277 25.067-17.277 25.067 3.5015 25.067 17.277z"/>
    <path d="m211.89 276.52c4.7228 6.48 7.5312 14.467 7.5312 23.094 0 12.466-5.8351 23.559-14.906 30.75 15.081-0.57257 25.906-3.6937 25.906-20.625 0-14.032-7.4066-26.34-18.531-33.219z" fill-opacity=".314"/>
   </g>
  </g>
 </g>
 <g stroke-width="4">
  <g fill="none" stroke="#000" stroke-linecap="round">
   <path d="m178.12 327.35c-3.5026-11.331 0.5004-24.551 0.5004-24.551"/>
   <path d="m196.14 329.87c4.293-18.256-0.61331-32.735-0.61331-32.735"/>
   <path d="m214.4 327.98c8.8133-13.85 1.259-25.181 1.259-25.181"/>
  </g>
  <g stroke-linejoin="round">
   <g fill-opacity=".314" stroke-linecap="round">
    <path d="m121.39 276.52c4.7228 6.48 7.5312 14.467 7.5312 23.094 0 12.466-5.8351 23.559-14.906 30.75 15.081-0.57257 25.906-3.6937 25.906-20.625 0-14.032-7.4066-26.34-18.531-33.219z"/>
    <path d="m157.58 290.24c-3.3125 5.7347-5.2188 12.406-5.2188 19.5 0 17.505 11.553 20.263 27.438 20.688-15.78-6.578-23.805-22.208-22.219-40.188z"/>
   </g>
   <g fill-rule="evenodd">
    <g stroke="#000">
     <path d="m79.209 88.003c-54.92-3.8741-83.529 62.302-76.029 81.802 6.0974 15.853 39.788 31.843 38.429 17.303-4.4099-47.184 54.734-97.896 37.6-99.105z" fill="#4c2106"/>
     <path d="m214.12 88.003c54.92-3.8741 83.529 62.302 76.029 81.802-6.0974 15.853-39.788 31.843-38.429 17.303 4.4099-47.184-54.734-97.896-37.6-99.105z" fill="#4c1f01"/>
    </g>
    <path d="m219.19 87.844c50.899 10.295 64.66 77.406 53.75 94.531-2.4181 3.7956-6.7552 7.1892-11.719 9.9062 10.085-2.3312 25.068-12.407 28.938-22.469 7.2656-18.891-19.367-81.591-70.969-81.969z" fill-opacity=".314"/>
    <path d="m116.46 363.72l114.61-21.23s19.568 26.878 42.243 11.563c22.674-15.315-9.042-30.526-9.042-30.526s31.843-14.864 0.5423-28.204-41.746 21.319-41.746 21.319l-111.07 16.776s-28.889-33.121-50.11-11.256c-21.22 21.865 7.8921 35.56 7.8921 35.56s-23.353 17.364 6.4382 29.01 38.672-19.851 40.237-23.013z" fill="#e3dbdb" stroke="#000"/>
    <path d="m98.803 323.54c3.0435 2.5131 5.9044 5.0872 8.6897 7.2628 0.36303-0.05542 0.72366-0.12317 1.0868-0.17865-2.6778-2.3194-5.9998-4.8912-9.7765-7.0841zm167.64-23.318c0.51303 0.61429 0.97812 1.2751 1.4023 1.9316 3.1008 8.0241-9.841 14.6-14.632 19.064 1.7348 2.9454 5.9916 4.8988 9.414 7.4405 2.9458-1.4728 29.348-16.231 3.8156-28.437zm-206.26 47.898c1.3995 2.9713 3.55 5.4967 5.7537 7.491 2.9254-3.0102-2.4198-5.0686-5.7537-7.491zm206.44-19.394c0.6796 0.68387 1.2634 1.4492 1.7193 2.2611 9.287 10.274-6.1193 22.897-18.278 22.252-11.936-0.22525-16.684-10.215-24.197-16.5-37.334 6.9993-77.341 14.438-114.68 21.437-3.8119 5.3999-5.1465 12.436-10.234 17.411-7.6183 10.448-24.517 9.369-34.708 2.2291-0.20271-0.09436-0.36863-0.23071-0.56221-0.33151 1.0414 4.1684 4.9994 8.53 14.49 12.287 29.109 11.523 37.779-19.655 39.308-22.784l114.68-21.437c-4.6e-5 0 16.45 27.038 38.605 11.884 18.001-12.313 0.89395-24.551-6.1451-28.71z" fill-opacity=".314"/>
   </g>
  </g>
 </g>
</svg>
